<?xml version="1.0" encoding="utf-8"?>
<!-- Generator: Adobe Illustrator 26.0.3, SVG Export Plug-In . SVG Version: 6.00 Build 0)  -->
<svg version="1.0" id="katman_1" xmlns="http://www.w3.org/2000/svg" xmlns:xlink="http://www.w3.org/1999/xlink" x="0px" y="0px"
	 viewBox="0 0 600 450" style="enable-background:new 0 0 600 450;" xml:space="preserve">
<style type="text/css">
	.st0{fill:#010202;}
</style>
<path class="st0" d="M280.7,222.9h9.1v46.2h24.7l-0.7,7.9h-33.1L280.7,222.9L280.7,222.9z M334.6,244.3c-2.5,0-4.9,0.8-6.9,2.4
	c-2.1,1.6-3.4,4.1-3.9,7.6h17.6c1.6,0,2.4-0.7,2.4-2.2c0-2-0.9-3.8-2.5-5.4C339.6,245.1,337.3,244.3,334.6,244.3z M336.1,277.8
	c-4,0-7.5-0.9-10.6-2.5c-3.1-1.6-5.6-4.1-7.3-7.1c-1.8-3-2.7-6.6-2.7-10.6c0-4,0.9-7.5,2.6-10.5c1.7-2.9,4.2-5.3,7.1-7
	c3-1.7,6.4-2.5,9.9-2.5c3.4,0,6.4,0.8,9,2.4c2.4,1.4,4.4,3.5,5.8,5.9c1.3,2.2,2,4.7,2,7.3c0,2.5-0.7,4.4-2.1,5.7s-3.3,1.9-5.6,1.9
	H324c0.6,3.2,2,5.7,4.4,7.5c2.4,1.8,5.2,2.7,8.5,2.7c4.6,0,8.5-1.5,11.8-4.5l3.6,5.2c-2,2-4.5,3.6-7.2,4.6
	C342.1,277.2,339.1,277.8,336.1,277.8z M364.5,265.1c0,1.9,0.7,3.5,2,4.5c1.4,1,3.1,1.6,5.1,1.6c1.6,0,3.2-0.3,4.7-1
	c1.4-0.7,2.6-1.7,3.4-2.9c0.9-1.2,1.3-2.7,1.3-4.2V260c-1.2-0.5-2.5-0.8-3.8-1c-1.4-0.2-2.7-0.4-4.1-0.4c-2.9,0-5.1,0.6-6.5,1.9
	c-0.7,0.5-1.3,1.3-1.6,2.1C364.7,263.3,364.5,264.2,364.5,265.1z M369.1,277.8c-4,0-7.2-1.1-9.7-3.3c-2.5-2.2-3.8-5.1-3.8-8.7
	c0-2.4,0.7-4.8,2-6.7c1.4-1.9,3.3-3.5,5.7-4.6c2.4-1.1,5.2-1.7,8.5-1.7c1.7,0,3.3,0.1,5,0.5c1.5,0.3,2.9,0.7,4.3,1.3v-1.6
	c0-2.6-0.9-4.6-2.6-6.1s-4.1-2.2-7.2-2.2c-2.2,0-4.3,0.4-6.3,1.2c-2,0.8-3.9,1.9-5.5,3.3l-3.4-5.2c4.5-4.1,10.4-6.3,16.5-6.3
	c3.6,0,6.7,0.7,9.3,2c2.4,1.2,4.5,3.2,5.9,5.5c1.4,2.4,2.1,5.2,2,7.9v24H382l-0.3-5.2c-1.2,1.7-2.9,3.1-5,4.3
	C374.5,277.2,372,277.8,369.1,277.8z M413.9,270.7c3,0,5.6-1.2,7.8-3.5c2.1-2.3,3.2-5.6,3.2-9.9c0-4-1-7.1-2.9-9.3
	c-0.9-1.1-2-1.9-3.3-2.5c-1.3-0.6-2.7-0.9-4.1-0.9c-2.9,0-5.3,1-7.2,3c-1.9,2-2.8,4.6-2.8,7.6v11.4
	C407,269.3,410.1,270.7,413.9,270.7z M395.8,261v-22.7h7.9l0.3,6.3c1.2-2.2,3-4,5.2-5.2c2.3-1.3,4.9-1.9,7.5-1.9
	c3.1,0,6.2,0.8,8.8,2.5c2.7,1.7,4.8,4.1,6.2,6.9c1.5,2.9,2.3,6.3,2.3,10.1c0,4.2-0.8,7.8-2.5,11c-1.5,3-3.8,5.5-6.7,7.3
	c-2.8,1.7-5.9,2.6-9.2,2.6c-2.1,0-4.1-0.3-6.1-1c-1.9-0.6-3.5-1.7-4.9-3.1v18.8h-8.8L395.8,261 M120.9,222.9l-18,29l-18-29h-9.1V277
	h9v-38.8l15.4,24.7h2.6h2.6l15.4-24.7V277h9v-54.1H120.9z M144.2,265.1c0,1.9,0.7,3.5,2,4.5c1.4,1,3.1,1.6,5.1,1.6
	c1.6,0,3.2-0.3,4.7-1c1.4-0.7,2.6-1.7,3.4-2.9s1.3-2.7,1.3-4.2V260c-1.2-0.5-2.5-0.8-3.8-1c-1.4-0.2-2.7-0.4-4.1-0.4
	c-2.9,0-5.1,0.6-6.5,1.9c-0.7,0.5-1.3,1.3-1.6,2.1C144.4,263.3,144.2,264.2,144.2,265.1z M148.8,277.8c-4,0-7.2-1.1-9.7-3.3
	c-2.5-2.2-3.8-5.1-3.8-8.7c0-2.4,0.7-4.8,2-6.7c1.4-2,3.4-3.6,5.7-4.6c2.4-1.1,5.2-1.7,8.5-1.7c1.7,0,3.3,0.1,5,0.5
	c1.5,0.3,2.9,0.7,4.3,1.3v-1.6c0-2.6-0.9-4.6-2.6-6.1c-1.7-1.5-4.1-2.3-7.2-2.3c-2.2,0-4.3,0.4-6.3,1.2c-2,0.8-3.9,1.9-5.5,3.3
	l-3.4-5.2c4.5-4.1,10.4-6.3,16.5-6.3c3.6,0,6.7,0.7,9.3,2c2.4,1.2,4.5,3.2,5.9,5.5c1.4,2.4,2.1,5.2,2,7.9v24h-7.7l-0.3-5.2
	c-1.2,1.7-2.9,3.1-5,4.3C154.3,277.2,151.7,277.7,148.8,277.8z M193.6,269.4c2.9,0,5.2-0.9,7-2.8c1.8-1.9,2.7-4.2,2.7-7v-11.9
	c-1.2-1-2.6-1.8-4.1-2.3c-1.6-0.5-3.2-0.8-4.8-0.8c-1.5,0-3,0.3-4.3,0.8c-1.4,0.6-2.6,1.4-3.6,2.5c-2.2,2.3-3.3,5.3-3.3,9.3
	c0,3.7,1,6.6,2.9,8.8c0.9,1.1,2,1.9,3.3,2.5C190.8,269.2,192.2,269.5,193.6,269.4z M192.1,293.2c-3.3,0-6.7-0.5-9.8-1.7
	c-2.9-1.1-5.7-2.7-8-4.9l3.6-5.7c1.8,1.6,3.9,2.9,6.2,3.8c2.5,1,5.1,1.4,7.7,1.4c3.1,0,5.8-0.9,8.1-2.5c2.3-1.7,3.4-4.2,3.4-7.5v-5
	c-1.2,1.7-2.8,3.1-4.7,4c-2,1-4.3,1.4-7,1.4c-3.1,0-6.2-0.8-8.8-2.4s-4.8-3.9-6.3-6.6c-1.6-2.8-2.4-6.1-2.4-9.8
	c0-3.9,0.8-7.4,2.5-10.5c1.6-2.9,3.9-5.4,6.8-7.2c2.9-1.8,6.1-2.7,9.5-2.6c2,0,4.1,0.3,6,1c1.9,0.6,3.6,1.6,5.1,2.9l0.3-3.2h7.9
	v37.4c0,4-1,7.2-2.9,9.9c-1.9,2.6-4.4,4.6-7.4,5.8C198.8,292.6,195.5,293.3,192.1,293.2z M218.6,277v-38.7h8.8V277H218.6z
	 M223,231.7c-0.8,0-1.5-0.1-2.2-0.4s-1.4-0.7-1.9-1.2c-1-1.1-1.6-2.5-1.6-4c0-1.5,0.6-2.9,1.6-4c1.1-1,2.6-1.6,4.1-1.6
	c1.5,0,3,0.6,4.1,1.6c1,1.1,1.6,2.5,1.6,4c0,1.5-0.6,2.9-1.6,4c-0.5,0.5-1.2,1-1.9,1.2C224.5,231.6,223.8,231.7,223,231.7z
	 M252.5,277.8c-3.5,0-7-0.8-10.2-2.4c-3-1.6-5.6-3.9-7.3-6.9c-1.8-3-2.8-6.6-2.8-10.8c0-4,1-7.5,2.8-10.5c1.8-3,4.4-5.4,7.5-7.1
	c2.8-1.5,5.8-2.4,9-2.5c3.2-0.2,6.3,0.4,9.2,1.5c2.4,1,4.4,2.4,6.2,4.3l-3.8,5.5c-1.4-1.2-2.9-2.2-4.6-2.9c-1.7-0.7-3.4-1-5.2-1
	c-2,0-4.1,0.5-5.9,1.4c-1.8,1-3.3,2.5-4.4,4.3c-1.1,1.9-1.7,4.2-1.7,6.9c0,2.8,0.5,5.1,1.7,7c1,1.8,2.5,3.3,4.3,4.2
	c1.8,1,3.8,1.4,5.8,1.4c3.6,0,6.9-1.3,10-3.8l3.7,5.5c-1.7,1.9-3.8,3.3-6.2,4.3C258.2,277.2,255.4,277.8,252.5,277.8z M452.9,236.1
	v61.3l9.3-5.3v-50.5L452.9,236.1z M390.9,189.5l52.8,30.4v-10.7l-43.4-25.1L390.9,189.5z M462.2,214.5l0-61.2l-9.2,5.1V217
	c0,2.5,0.7,5,1.9,7.2c1.3,2.2,3.1,4,5.2,5.2l54.9,31.7l9.3-5.4l-57.6-33.2l57.5-33.2l-9.3-5.3L462.2,214.5z"/>
</svg>
